<svg width="141" height="64" viewBox="0 0 141 64" fill="none" xmlns="http://www.w3.org/2000/svg">
<path d="M140 1L59.0636 62.5822C60.3757 56.0203 59.7302 51.4161 59.3175 41.4683C51.0755 45.6911 34.5999 46.7468 27.3924 46.7468C27.3924 45.7731 27.3924 39.4108 27.6906 33.3259C24.6587 34.8671 15.0759 37.5974 1 36.1898C8.03796 34.4303 20.3544 27.3924 29.1519 22.1139L140 1Z" fill="#9358CB"/>
<path d="M140 1C120.646 10.384 76.5 26 59.0634 29.1519M140 1L59.0636 62.5822C60.3757 56.0203 59.7302 51.4161 59.3175 41.4683M140 1L29.1519 22.1139M59.0634 29.1519C50.8524 35.0168 33.0227 46.7468 27.3924 46.7468M59.0634 29.1519C59.0634 34.07 59.1769 38.0793 59.3175 41.4683M29.1519 22.1139C28.3661 23.6855 27.9312 28.4154 27.6906 33.3259M29.1519 22.1139C20.3544 27.3924 8.03796 34.4303 1 36.1898C15.0759 37.5974 24.6587 34.8671 27.6906 33.3259M27.3924 46.7468C27.3924 45.7731 27.3924 39.4108 27.6906 33.3259M27.3924 46.7468C34.5999 46.7468 51.0755 45.6911 59.3175 41.4683" stroke="white"/>
</svg>
