<?xml version="1.0" encoding="utf-8"?>
<!-- Generator: Adobe Illustrator 26.0.3, SVG Export Plug-In . SVG Version: 6.00 Build 0)  -->
<svg version="1.0" id="katman_1" xmlns="http://www.w3.org/2000/svg" xmlns:xlink="http://www.w3.org/1999/xlink" x="0px" y="0px"
	 viewBox="0 0 173.3 115.6" style="enable-background:new 0 0 173.3 115.6;" xml:space="preserve">
<style type="text/css">
	.st0{fill:#00AED6;}
	.st1{fill-rule:evenodd;clip-rule:evenodd;fill:#FFFFFF;}
</style>
<g id="logo_x2F_32_x2F_text_x2F_color_x2F_gopay">
	<g id="Group" transform="translate(0.000000, 3.200000)">
		<circle id="Oval" class="st0" cx="40.8" cy="54.6" r="12.8"/>
		<circle id="Oval_00000043418500978943989490000002100934558821794719_" class="st0" cx="40.8" cy="54.6" r="12.8"/>
		<path id="Shape" class="st1" d="M48.3,54.2c-0.1-1.6-1.5-2.9-3.1-2.8h-8.1c-0.3,0-0.5-0.2-0.5-0.5s0.2-0.5,0.5-0.5h8.2
			c0-1.1-0.8-2.1-1.9-2.4c-2.4-0.4-4.8-0.4-7.2,0c-1.4,0.3-2.4,1.5-2.6,2.8c-0.4,2.5-0.4,5.1,0,7.6c0.3,1.5,1.4,2.6,2.9,2.8
			c3,0.4,6,0.4,8.9,0c1.3-0.3,2.3-1.4,2.5-2.7C48.2,57.1,48.3,55.7,48.3,54.2z M45.6,56v0.5c0,0.3-0.2,0.5-0.5,0.5s-0.5-0.2-0.5-0.5
			V56c-0.2-0.1-0.3-0.4-0.3-0.6c0-0.4,0.4-0.8,0.8-0.8s0.8,0.4,0.8,0.8C45.9,55.6,45.8,55.8,45.6,56L45.6,56z"/>
		<path id="Shape_00000090266071957279459030000006407478557436111760_" d="M63.7,61c1.1,1.5,2.9,2.4,4.8,2.3c2.2,0,3.9-1.4,3.9-3.4
			v-1h-0.1c-1.2,1.2-2.9,1.8-4.6,1.7c-2.7,0.1-5.2-1.3-6.6-3.6s-1.4-5.2-0.1-7.5c1.3-2.3,3.8-3.8,6.5-3.7c1.7-0.1,3.4,0.5,4.7,1.7
			h0.1V46h3.8v13.9c0,4-3.2,6.8-7.7,6.8c-2.9,0.2-5.8-1.1-7.6-3.4L63.7,61z M72.2,52.3c0-1.6-1.8-3.1-3.9-3.1
			c-2.6,0-4.3,1.6-4.3,3.9c-0.1,1.1,0.3,2.2,1.1,3c0.8,0.8,1.9,1.2,3,1c2.2,0,4-1.4,4-3.1V52.3z M86.2,45.6c4.6,0,8,3.3,8,7.5
			s-3.4,7.5-8,7.5c-2.8,0.2-5.5-1.2-6.9-3.6c-1.5-2.4-1.5-5.4,0-7.8S83.4,45.4,86.2,45.6L86.2,45.6z M86.2,49.1c-2.2,0-4,1.8-4,4
			c0,2.2,1.8,4,4,4c2.2,0,4-1.8,4-4c0.1-1.1-0.4-2.1-1.1-2.9C88.3,49.5,87.3,49.1,86.2,49.1L86.2,49.1z M96.4,46h3.8v1.3h0.1
			c1.2-1.1,2.9-1.7,4.6-1.7c4.1,0.1,7.4,3.4,7.4,7.5c0,4.1-3.3,7.4-7.4,7.5c-1.6,0-3.2-0.5-4.5-1.5h-0.1v7.1h-4V46z M104.2,49.1
			c-2.1,0-3.9,1.5-3.9,3.1V54c0,1.7,1.7,3.1,3.9,3.1c2.2,0,4-1.8,4-4C108.2,50.9,106.4,49.1,104.2,49.1z M119.7,51.8
			c2.6-0.3,3.4-0.7,3.4-1.5c0-0.9-1-1.5-2.5-1.5c-1.6-0.1-3.2,0.9-3.5,2.6l-3.8-0.8c0.5-2.9,3.5-5,7.2-5c4.2,0,6.7,2.1,6.7,5.6v9.1
			h-3.6v-1.6h-0.1c-1.2,1.4-3,2.1-4.8,2c-3.1,0-5.3-1.7-5.3-4.2C113.5,53.8,115.2,52.4,119.7,51.8z M123.4,53.3L123.4,53.3
			c-0.4,0.5-1.2,0.8-3.1,1.2c-2.3,0.4-3.2,0.9-3.2,1.7c0,0.9,0.7,1.2,2.2,1.2c2.3,0,4.1-1,4.1-2.4V53.3z M134.4,59.5L127.8,46h4.4
			l4.3,9.3h0.1l4.3-9.3h4.4l-9.9,20.3H131L134.4,59.5z"/>
	</g>
</g>
</svg>
