<svg width="204" height="208" viewBox="0 0 204 208" fill="none" xmlns="http://www.w3.org/2000/svg">
<path d="M44.4977 189.295L23.0981 199.202C22.6656 199.387 22.1863 199.397 21.7474 199.231C21.3085 199.065 20.9392 198.733 20.7066 198.297L11.3861 180.436C10.7472 179.211 11.0455 177.82 12.064 177.349L37.5873 165.533C38.6057 165.062 39.7382 165.791 40.1115 167.138L45.5489 186.794C45.6791 187.279 45.6446 187.798 45.4517 188.257C45.2587 188.716 44.9201 189.085 44.4977 189.295Z" fill="#F9CC00"/>
<path d="M40.3495 162.839L8.35202 177.652C8.02115 177.806 7.86739 178.221 8.00858 178.58L10.3935 184.642C10.5347 185.001 10.9174 185.168 11.2482 185.015L43.2457 170.202C43.5766 170.049 43.7303 169.634 43.5891 169.275L41.2042 163.212C41.063 162.853 40.6804 162.686 40.3495 162.839Z" fill="white"/>
<path d="M11.7109 185.002C11.2472 185.001 10.7939 184.853 10.4072 184.575C10.0204 184.298 9.71715 183.904 9.53499 183.441L8.21197 180.079C7.96669 179.453 7.96051 178.746 8.19479 178.115C8.42908 177.484 8.88467 176.979 9.46158 176.712L38.968 163.051C39.5456 162.784 40.197 162.777 40.7793 163.031C41.3616 163.286 41.827 163.78 42.0733 164.406L43.3948 167.768C43.5167 168.078 43.581 168.412 43.5842 168.749C43.5873 169.086 43.5292 169.42 43.4132 169.733C43.2971 170.046 43.1254 170.33 42.9078 170.571C42.6903 170.812 42.4311 171.003 42.1452 171.135L12.6387 184.797C12.3454 184.932 12.0297 185.002 11.7109 185.002ZM39.8928 163.629C39.6716 163.629 39.4527 163.677 39.2492 163.771L9.74274 177.432C9.34178 177.618 9.02529 177.97 8.86275 178.409C8.70022 178.848 8.70492 179.339 8.87582 179.774L10.1988 183.136C10.3701 183.571 10.6935 183.914 11.098 184.091C11.5025 184.267 11.9549 184.262 12.356 184.077L41.8625 170.415C42.0611 170.323 42.2411 170.19 42.3921 170.023C42.5432 169.855 42.6624 169.657 42.7429 169.44C42.8234 169.223 42.8637 168.99 42.8614 168.756C42.859 168.522 42.8142 168.291 42.7294 168.075L41.4142 164.711C41.2867 164.389 41.0745 164.114 40.8039 163.921C40.5333 163.729 40.2164 163.627 39.8928 163.629Z" fill="#151515"/>
<path d="M15.4072 153.977L23.8132 175.346C23.9781 175.766 24.4251 175.96 24.8115 175.782L27.725 174.433C28.1114 174.254 28.291 173.769 28.1261 173.35L19.7201 151.981C19.5552 151.561 19.1083 151.367 18.7219 151.545L15.8083 152.894C15.4219 153.073 15.2423 153.558 15.4072 153.977Z" fill="#A06ECE"/>
<path d="M196.096 147.331C196.033 147.299 195.98 147.268 195.922 147.238C192.876 145.499 182.011 135.669 174.292 130.882C171.616 129.222 172.208 122.372 185.099 119.632C185.971 119.449 186.894 119.283 187.881 119.136C187.881 119.136 200.816 126.271 203.14 136.101C205.426 145.75 199.21 148.866 196.096 147.331Z" fill="#A06ECE"/>
<path d="M189.649 141.305C189.59 141.305 189.531 141.289 189.479 141.258C189.427 141.228 189.382 141.184 189.349 141.13C189.316 141.077 189.296 141.015 189.29 140.951C189.285 140.887 189.294 140.822 189.316 140.762C190.369 138.029 191.56 136.506 192.097 135.906C189.312 133.115 180.411 127.208 180.319 127.145C180.278 127.119 180.241 127.084 180.212 127.043C180.183 127.001 180.162 126.953 180.15 126.903C180.138 126.852 180.136 126.8 180.143 126.748C180.15 126.696 180.167 126.647 180.192 126.602C180.217 126.558 180.25 126.519 180.289 126.489C180.329 126.458 180.373 126.436 180.42 126.425C180.467 126.413 180.515 126.412 180.563 126.421C180.61 126.43 180.655 126.449 180.696 126.478C181.091 126.739 190.38 132.917 192.879 135.628C192.914 135.666 192.942 135.712 192.96 135.763C192.978 135.813 192.986 135.867 192.984 135.921C192.981 135.975 192.969 136.028 192.947 136.076C192.925 136.125 192.894 136.168 192.856 136.203C192.84 136.216 191.294 137.667 189.988 141.061C189.961 141.134 189.914 141.196 189.853 141.24C189.793 141.283 189.722 141.306 189.649 141.305Z" fill="#151515"/>
<path d="M196.096 147.331C199.046 146.36 201.216 144.245 201.139 140.106C200.938 129.625 188.988 121.871 185.101 119.627C185.972 119.444 186.895 119.278 187.883 119.131C187.883 119.131 200.818 126.267 203.142 136.096C205.426 145.75 199.21 148.866 196.096 147.331Z" fill="white"/>
<path d="M197.783 148.095C197.15 148.101 196.524 147.96 195.946 147.681C195.879 147.648 195.824 147.594 195.786 147.526C195.749 147.457 195.731 147.378 195.736 147.299C195.741 147.22 195.768 147.144 195.814 147.082C195.859 147.02 195.921 146.974 195.991 146.951C199.232 145.885 200.843 143.582 200.777 140.108C200.579 129.772 188.593 122.084 184.93 119.972C184.864 119.935 184.811 119.875 184.777 119.803C184.743 119.731 184.731 119.649 184.742 119.569C184.753 119.489 184.787 119.414 184.838 119.356C184.89 119.297 184.957 119.257 185.03 119.242C185.935 119.052 186.877 118.885 187.831 118.742C187.904 118.731 187.978 118.744 188.044 118.781C188.578 119.076 201.15 126.112 203.489 135.999C204.976 142.269 202.881 145.319 201.5 146.575C200.461 147.534 199.147 148.071 197.783 148.095ZM197.286 147.276C198.536 147.432 199.951 146.965 201.035 145.975C202.284 144.838 204.176 142.054 202.787 136.194C200.637 127.098 189.01 120.221 187.812 119.535C187.256 119.62 186.705 119.705 186.163 119.813C190.665 122.553 201.302 130.084 201.496 140.093C201.564 143.553 200.148 145.965 197.286 147.281V147.276Z" fill="#151515"/>
<path d="M167.793 129.903L175.674 126.378C175.674 126.378 177.8 127.313 178.161 130.445L171.042 135.644L167.793 129.903Z" fill="white"/>
<path d="M171.041 136.037C171.015 136.037 170.99 136.034 170.965 136.029C170.918 136.018 170.873 135.998 170.833 135.969C170.794 135.94 170.76 135.903 170.733 135.859L167.484 130.116C167.457 130.068 167.439 130.014 167.433 129.957C167.427 129.901 167.432 129.844 167.448 129.79C167.465 129.736 167.491 129.686 167.527 129.645C167.563 129.603 167.606 129.57 167.655 129.549L175.535 126.024C175.623 125.985 175.721 125.985 175.808 126.024C175.902 126.067 178.134 127.085 178.517 130.406C178.525 130.478 178.515 130.551 178.487 130.617C178.46 130.682 178.416 130.739 178.361 130.779L171.243 135.978C171.182 136.019 171.112 136.039 171.041 136.037ZM168.322 130.091L171.152 135.093L177.77 130.26C177.428 127.99 176.08 127.049 175.662 126.809L168.322 130.091Z" fill="#151515"/>
<path d="M172.102 141.41C172.102 141.41 165.293 147.81 158.117 151.709C154.845 153.484 151.496 154.743 148.685 154.632C147.15 154.57 145.093 153.839 142.675 152.599C130.96 146.605 110.953 128.799 102.97 119.13C101.082 116.846 99.4175 114.355 98.0043 111.697C92.6388 101.641 91.8781 90.9894 96.069 86.9412C99.5336 83.5996 104.332 85.4636 109.624 89.483C113.148 92.1519 116.892 95.7849 120.608 99.4621C129.918 108.694 154.701 131.15 154.701 131.15L165.769 127.761C174.83 129.836 172.102 141.41 172.102 141.41Z" fill="#F9CC00"/>
<path d="M110.992 97.8048L98.0043 111.7C92.6388 101.641 91.8781 90.9894 96.069 86.9412C99.5336 83.5996 104.332 85.4636 109.624 89.483L110.992 97.8048Z" fill="#151515"/>
<path d="M158.119 151.711C154.846 153.485 151.497 154.744 148.687 154.634C147.152 154.572 145.094 153.841 142.676 152.601C142.533 149.422 145.188 145.355 150.174 145.026C156.285 144.621 158.195 148.981 158.119 151.711Z" fill="#A06ECE"/>
<path d="M151.493 140.808C151.442 140.808 151.392 140.797 151.346 140.774C135.351 132.997 102.606 98.6146 102.277 98.2757C102.243 98.2399 102.215 98.1971 102.197 98.1499C102.178 98.1026 102.168 98.0518 102.167 98.0004C102.166 97.9489 102.175 97.8978 102.192 97.85C102.21 97.8022 102.236 97.7585 102.269 97.7216C102.302 97.6846 102.341 97.6551 102.385 97.6347C102.428 97.6143 102.475 97.6034 102.523 97.6026C102.57 97.6018 102.617 97.6112 102.661 97.6301C102.705 97.6491 102.746 97.6773 102.78 97.7131C103.106 98.052 135.582 132.156 151.515 139.99L165.456 134.949C165.546 134.916 165.646 134.924 165.731 134.97C165.817 135.017 165.882 135.098 165.912 135.197C165.943 135.296 165.936 135.403 165.893 135.496C165.85 135.589 165.775 135.66 165.684 135.693L151.608 140.776C151.572 140.794 151.533 140.805 151.493 140.808Z" fill="#151515"/>
<path d="M169.718 142.236H169.678C169.583 142.223 169.498 142.17 169.439 142.088C169.381 142.007 169.354 141.904 169.365 141.802C170.396 132.047 165.049 130.415 164.821 130.349C164.728 130.323 164.649 130.258 164.6 130.169C164.551 130.079 164.537 129.972 164.561 129.872C164.585 129.771 164.645 129.685 164.727 129.632C164.81 129.579 164.908 129.564 165.001 129.589C165.063 129.606 171.188 131.426 170.082 141.89C170.072 141.986 170.029 142.075 169.961 142.139C169.894 142.203 169.807 142.237 169.718 142.236Z" fill="#151515"/>
<path d="M155.741 189.178C155.02 201.529 151.011 208.404 146.199 207.533C145.327 207.393 144.497 207.035 143.773 206.489C141.165 204.505 140.727 200.324 140.337 196.92C139.856 192.655 136.65 175.474 136.088 172.295C135.526 169.116 136.65 164.715 139.976 164.595C142.224 164.517 146.38 165.529 149.331 166.344C151.271 166.881 152.689 167.335 152.689 167.335C152.689 167.335 156.463 176.821 155.741 189.178Z" fill="#A06ECE"/>
<path d="M140.558 192.004C140.469 192.003 140.384 191.967 140.318 191.902C140.252 191.837 140.211 191.747 140.202 191.651C140.193 191.555 140.217 191.459 140.27 191.381C140.322 191.303 140.399 191.249 140.486 191.229C142.165 190.885 143.887 190.859 145.574 191.151C146.042 185.154 144.309 170.756 144.291 170.609C144.281 170.507 144.308 170.404 144.366 170.324C144.424 170.243 144.51 170.19 144.603 170.177C144.697 170.164 144.792 170.191 144.867 170.253C144.943 170.314 144.993 170.406 145.007 170.507C145.083 171.13 146.856 185.847 146.256 191.658C146.251 191.712 146.235 191.765 146.209 191.812C146.184 191.859 146.15 191.9 146.109 191.932C146.068 191.964 146.021 191.986 145.972 191.997C145.922 192.009 145.872 192.008 145.822 191.997C145.797 191.997 143.251 191.414 140.635 191.997C140.61 192.002 140.584 192.004 140.558 192.004Z" fill="#151515"/>
<path d="M155.741 189.177C155.019 201.529 151.011 208.403 146.199 207.532C145.924 207.484 145.652 207.416 145.385 207.329C147.478 206.85 151.063 204.431 152.637 193.851C154.61 180.528 150.75 169.241 149.677 166.438C151.439 166.935 152.695 167.337 152.695 167.337C152.695 167.337 156.463 176.821 155.741 189.177Z" fill="white"/>
<path d="M147.02 208C146.725 208 146.431 207.972 146.14 207.919C145.85 207.867 145.563 207.795 145.282 207.704C145.205 207.679 145.139 207.627 145.092 207.556C145.046 207.485 145.023 207.399 145.026 207.313C145.03 207.226 145.059 207.143 145.111 207.077C145.163 207.01 145.233 206.965 145.312 206.946C147.25 206.501 150.733 204.201 152.281 193.788C154.217 180.725 150.523 169.667 149.345 166.588C149.319 166.521 149.311 166.447 149.322 166.375C149.333 166.304 149.362 166.237 149.406 166.182C149.45 166.127 149.507 166.086 149.571 166.065C149.635 166.043 149.703 166.041 149.768 166.059C151.514 166.551 152.784 166.956 152.797 166.961C152.848 166.977 152.895 167.005 152.934 167.043C152.974 167.081 153.005 167.128 153.026 167.181C153.064 167.278 156.821 176.894 156.1 189.21C155.61 197.603 153.548 203.952 150.443 206.623C149.376 207.536 148.228 208 147.02 208ZM146.771 207.209C147.906 207.28 148.987 206.87 149.996 206.004C152.941 203.462 154.904 197.327 155.382 189.154C156.038 177.918 152.919 168.989 152.428 167.661C152.102 167.559 151.314 167.322 150.282 167.017C151.688 170.914 154.831 181.527 152.995 193.914C151.674 202.795 148.898 206.048 146.771 207.207V207.209Z" fill="#151515"/>
<path d="M137.056 171.798L133.409 169.689L128.034 166.577L131.524 160.308L133.348 161.717L139.465 166.437C139.465 166.437 141.268 170.293 137.056 171.798Z" fill="white"/>
<path d="M137.056 172.189C136.997 172.19 136.938 172.174 136.886 172.144L127.862 166.923C127.819 166.898 127.781 166.863 127.75 166.822C127.72 166.78 127.697 166.733 127.684 166.681C127.671 166.63 127.668 166.577 127.675 166.524C127.681 166.471 127.698 166.421 127.723 166.375L131.213 160.106C131.238 160.059 131.273 160.019 131.313 159.988C131.354 159.957 131.4 159.935 131.448 159.924C131.497 159.913 131.547 159.913 131.596 159.924C131.645 159.935 131.691 159.957 131.731 159.989L139.671 166.118C139.719 166.155 139.757 166.204 139.784 166.26C139.816 166.331 140.596 168.031 139.955 169.714C139.53 170.832 138.592 171.657 137.167 172.166C137.131 172.18 137.094 172.188 137.056 172.189ZM128.539 166.428L137.087 171.374C138.221 170.939 138.962 170.283 139.288 169.42C139.734 168.251 139.304 167.026 139.174 166.709L131.628 160.885L128.539 166.428Z" fill="#151515"/>
<path d="M133.409 169.69L128.034 166.579L131.524 160.31L133.348 161.719C134.098 164.311 134.119 167.086 133.409 169.69Z" fill="#151515"/>
<path d="M114.799 107.129C114.773 107.128 114.746 107.125 114.72 107.119L112.017 106.468C111.958 106.454 111.902 106.423 111.856 106.379C111.81 106.335 111.776 106.28 111.755 106.217L109.106 98.124C109.09 98.0755 109.083 98.024 109.085 97.9726C109.088 97.9212 109.1 97.8708 109.12 97.8243C109.14 97.7778 109.169 97.7361 109.204 97.7016C109.239 97.6671 109.281 97.6405 109.325 97.6232C109.37 97.606 109.417 97.5985 109.465 97.6011C109.512 97.6037 109.559 97.6165 109.602 97.6386C109.644 97.6607 109.683 97.6917 109.715 97.7299C109.746 97.7682 109.771 97.8128 109.787 97.8613L112.367 105.749L114.879 106.354C114.967 106.374 115.044 106.429 115.097 106.508C115.15 106.587 115.173 106.684 115.163 106.781C115.153 106.877 115.11 106.967 115.043 107.031C114.976 107.095 114.889 107.13 114.799 107.129Z" fill="#151515"/>
<path d="M136.936 116.395C133.206 127.228 122.253 146.804 122.253 146.804L132.961 157.376C134.645 170.036 125.502 172.906 125.502 172.906C125.502 172.906 113.787 166.089 107.303 161.51C105.715 160.389 104.44 159.401 103.728 158.681C100.821 155.736 99.2385 152.03 100.307 145.582C100.609 143.827 101.026 142.098 101.557 140.409C104.563 130.621 114.79 106.737 114.79 106.737C114.79 106.737 107.577 86.9987 113.948 82.2015C121.407 76.5892 132.956 88.3357 135.843 93.5548C138.729 98.774 140.665 105.562 136.936 116.395Z" fill="#F9CC00"/>
<path d="M126.075 140.13C126.012 140.13 125.95 140.112 125.895 140.078C125.84 140.044 125.795 139.994 125.763 139.935C125.732 139.876 125.715 139.808 125.715 139.74C125.715 139.671 125.731 139.604 125.763 139.544C129.462 132.536 134.343 122.804 136.599 116.255C140.472 105.005 138.07 98.3197 135.544 93.7547C133.635 90.3046 127.086 82.8843 120.593 81.3677C118.112 80.7898 115.95 81.1779 114.165 82.52C108.1 87.0952 115.066 106.396 115.136 106.582C115.154 106.632 115.163 106.684 115.162 106.737C115.16 106.79 115.149 106.842 115.129 106.891C115.097 106.962 112.016 114.167 108.779 122.175C108.761 122.224 108.735 122.269 108.701 122.306C108.667 122.344 108.626 122.373 108.581 122.394C108.536 122.414 108.488 122.424 108.44 122.423C108.391 122.423 108.343 122.411 108.299 122.39C108.254 122.369 108.214 122.339 108.181 122.3C108.148 122.262 108.122 122.217 108.105 122.168C108.088 122.118 108.081 122.066 108.083 122.013C108.085 121.961 108.097 121.909 108.118 121.862C111.097 114.489 113.946 107.797 114.409 106.713C113.687 104.691 107.456 86.6105 113.752 81.8676C115.71 80.395 118.062 79.968 120.744 80.5933C127.45 82.1777 134.198 89.803 136.163 93.3615C138.771 98.0774 141.255 104.976 137.273 116.539C135.002 123.138 130.101 132.908 126.389 139.944C126.356 140.002 126.31 140.05 126.255 140.082C126.2 140.115 126.138 140.132 126.075 140.13Z" fill="#151515"/>
<path d="M114.799 107.128C114.728 107.128 114.659 107.105 114.6 107.062C114.541 107.02 114.495 106.959 114.468 106.888C114.44 106.818 114.433 106.74 114.446 106.664C114.459 106.588 114.492 106.519 114.542 106.464C114.652 106.342 117.316 103.436 123.634 100.824C123.678 100.806 123.726 100.797 123.773 100.799C123.82 100.801 123.867 100.812 123.91 100.833C123.953 100.854 123.992 100.884 124.025 100.922C124.057 100.959 124.083 101.003 124.099 101.051C124.116 101.099 124.124 101.151 124.123 101.202C124.121 101.253 124.111 101.304 124.091 101.351C124.072 101.398 124.044 101.44 124.01 101.475C123.975 101.511 123.934 101.538 123.89 101.556C117.739 104.098 115.084 106.979 115.057 107.011C115.023 107.048 114.983 107.078 114.939 107.098C114.895 107.118 114.847 107.128 114.799 107.128Z" fill="#151515"/>
<path d="M110.589 159.27C109.652 160.602 108.501 161.304 107.309 161.51C105.72 160.389 104.446 159.401 103.734 158.681C100.827 155.735 99.2444 152.03 100.313 145.582C101.039 144.147 102.131 143.148 103.671 143.018C111.253 142.366 114.14 154.243 110.589 159.27Z" fill="#A06ECE"/>
<path d="M127.794 158.157C127.72 158.157 127.648 158.132 127.587 158.086L113.873 147.646C113.807 147.595 113.758 147.523 113.734 147.439C113.711 147.355 113.714 147.265 113.743 147.183C117.292 137.25 130.382 103.823 131.478 101.026C129.148 96.8997 122.43 89.4692 122.361 89.3929C122.294 89.3188 122.257 89.2187 122.257 89.1148C122.258 89.0109 122.297 88.9116 122.366 88.8388C122.434 88.766 122.526 88.7256 122.622 88.7266C122.718 88.7275 122.809 88.7697 122.876 88.8439C123.162 89.1591 129.905 96.6251 132.192 100.795C132.221 100.848 132.238 100.908 132.242 100.969C132.245 101.03 132.236 101.091 132.214 101.148C132.075 101.495 118.35 136.511 114.516 147.181L128 157.445C128.062 157.493 128.109 157.561 128.134 157.64C128.159 157.718 128.159 157.803 128.137 157.883C128.114 157.962 128.068 158.031 128.006 158.081C127.945 158.13 127.87 158.157 127.794 158.157Z" fill="#151515"/>
<path d="M124.243 170.294C124.16 170.294 124.079 170.262 124.015 170.205C123.95 170.147 123.906 170.068 123.89 169.979C123.873 169.891 123.886 169.799 123.925 169.719C123.964 169.639 124.027 169.576 124.104 169.541C131.4 166.239 130.155 156.421 130.141 156.324C130.133 156.273 130.135 156.22 130.146 156.169C130.157 156.118 130.177 156.071 130.205 156.028C130.233 155.986 130.269 155.951 130.31 155.924C130.351 155.897 130.397 155.879 130.445 155.871C130.492 155.864 130.541 155.867 130.587 155.88C130.634 155.893 130.677 155.916 130.716 155.947C130.754 155.979 130.786 156.018 130.81 156.064C130.834 156.109 130.849 156.159 130.855 156.21C130.869 156.316 132.189 166.732 124.38 170.275C124.336 170.291 124.29 170.297 124.243 170.294Z" fill="#151515"/>
<path d="M34.4803 50.9374L28.6056 52.8472C28.6056 52.8472 12.709 50.5782 9.73176 50.3596C6.75456 50.141 5.28002 55.8651 9.19755 57.6105C13.1151 59.3558 24.8568 64.2429 27.4294 64.3056C30.002 64.3683 39.9349 61.674 39.9349 61.674L34.4803 50.9374Z" fill="white"/>
<path d="M27.5121 64.6969H27.4168C24.7848 64.6325 13.0463 59.7455 9.05999 57.9713C6.80757 56.9682 6.18901 54.7026 6.57483 52.9013C6.96846 51.0662 8.26961 49.8647 9.75665 49.9681C12.637 50.1799 27.2403 52.2574 28.5774 52.4489L34.3849 50.5629C34.4641 50.5371 34.549 50.5415 34.6254 50.5754C34.7019 50.6093 34.7653 50.6707 34.8051 50.7493L40.2581 61.4841C40.2849 61.5366 40.3002 61.5951 40.3029 61.655C40.3055 61.7149 40.2954 61.7747 40.2734 61.8297C40.2514 61.8848 40.2179 61.9336 40.1758 61.9724C40.1336 62.0111 40.0837 62.0389 40.0301 62.0535C39.6193 62.1602 30.2394 64.6969 27.5121 64.6969ZM9.57077 50.7442C8.34459 50.7442 7.52922 51.9304 7.28242 53.0792C6.98876 54.4484 7.35115 56.3615 9.33959 57.2461C13.1275 58.9406 24.9379 63.8547 27.4371 63.9124C29.6083 63.9734 37.4168 61.9365 39.3912 61.4129L34.3053 51.4017L28.7148 53.2216C28.6644 53.2388 28.611 53.2434 28.5586 53.2351C28.4024 53.2131 12.6401 50.9645 9.70667 50.7493L9.57077 50.7442Z" fill="#151515"/>
<path d="M67.031 35.9443L32.9463 50.6986C32.9463 50.6986 33.04 66.2391 42.976 71.1634L69.5115 56.1651C69.5115 56.1651 77.3809 44.1153 67.031 35.9443Z" fill="#A06ECE"/>
<path d="M43.9912 68.7157C43.9252 68.716 43.8604 68.6966 43.8038 68.6598C35.7797 63.383 35.8765 51.3976 35.8781 51.2773C35.8798 51.1735 35.9194 51.0746 35.9882 51.0025C36.057 50.9304 36.1495 50.8908 36.2452 50.8926C36.3409 50.8944 36.432 50.9374 36.4985 51.0121C36.565 51.0868 36.6014 51.187 36.5998 51.2909C36.5998 51.4061 36.5107 62.9509 44.1771 67.9904C44.244 68.0348 44.2957 68.1017 44.3244 68.1808C44.3531 68.26 44.3573 68.3471 44.3363 68.4291C44.3153 68.5111 44.2703 68.5834 44.208 68.6351C44.1457 68.6868 44.0696 68.7151 43.9912 68.7157Z" fill="#151515"/>
<path d="M70.1815 35.5549L85.3862 37.1749L107.04 35.4092C107.04 35.4092 125.266 61.7065 135.974 85.9823C135.974 85.9823 127.192 102.165 109.868 104.646C92.5434 107.127 85.0847 100.86 85.0847 100.86C85.0847 100.86 83.1588 85.2029 76.9029 74.5019C72.1731 66.4122 62.5636 54.4421 61.9216 44.1699C61.6092 39.1626 65.5705 35.0703 70.1815 35.5549Z" fill="#A06ECE"/>
<path d="M66.1535 57.4263C66.0899 57.426 66.0275 57.4075 65.9727 57.3727C65.9178 57.3379 65.8724 57.288 65.841 57.228C63.195 52.1732 61.797 47.9081 61.5658 44.2039C61.4371 42.1512 62.0036 40.1181 63.1591 38.4865C63.2175 38.4043 63.3036 38.3506 63.3985 38.3372C63.4934 38.3239 63.5893 38.352 63.6652 38.4154C63.741 38.4787 63.7905 38.5722 63.8028 38.6751C63.8151 38.7781 63.7892 38.8821 63.7308 38.9644C62.6828 40.4447 62.169 42.2891 62.2859 44.1513C62.5108 47.742 63.8776 51.8919 66.469 56.8433C66.4998 56.903 66.5157 56.9703 66.5151 57.0387C66.5145 57.1071 66.4973 57.1741 66.4654 57.233C66.4335 57.292 66.3879 57.3409 66.3332 57.3748C66.2784 57.4087 66.2165 57.4264 66.1535 57.4263Z" fill="#151515"/>
<path d="M102.87 102.424C93.676 102.424 87.0937 99.6973 87.0094 99.6617C86.9652 99.643 86.9248 99.6151 86.8905 99.5794C86.8563 99.5438 86.8288 99.5012 86.8098 99.4541C86.7713 99.3589 86.7692 99.251 86.804 99.1542C86.8388 99.0573 86.9076 98.9795 86.9953 98.9377C87.0831 98.8959 87.1825 98.8936 87.2718 98.9314C87.3843 98.9805 98.598 103.617 112.173 100.648C125.03 97.8418 133.117 84.7651 133.197 84.6329C133.223 84.59 133.256 84.5531 133.296 84.5242C133.335 84.4954 133.379 84.4753 133.426 84.465C133.472 84.4547 133.52 84.4544 133.567 84.4642C133.613 84.4739 133.658 84.4936 133.697 84.522C133.737 84.5503 133.771 84.5869 133.797 84.6295C133.824 84.6722 133.843 84.7201 133.852 84.7705C133.862 84.8209 133.862 84.8729 133.853 84.9234C133.844 84.974 133.826 85.0221 133.8 85.065C133.718 85.1989 125.465 98.5467 112.316 101.417C109.206 102.091 106.042 102.428 102.87 102.424Z" fill="#151515"/>
<path d="M83.2184 34.9569C78.712 35.4889 72.1109 42.3958 77.9653 48.6605C77.9653 48.6605 79.1884 46.3763 80.8129 44.614C80.8129 44.614 81.4752 47.354 82.7373 49.6976C82.7373 49.6976 88.2512 46.827 89.4337 41.3452C90.6161 35.8634 85.9847 34.6298 83.2184 34.9569Z" fill="white"/>
<path d="M82.7373 50.0955C82.6741 50.0955 82.6119 50.0776 82.5571 50.0434C82.5022 50.0092 82.4567 49.9599 82.4249 49.9006C81.6821 48.4658 81.084 46.9484 80.6411 45.3745C79.7555 46.4533 78.9643 47.6191 78.2778 48.8568C78.25 48.9084 78.2118 48.9524 78.166 48.9855C78.1202 49.0186 78.068 49.0399 78.0134 49.0478C77.9588 49.0556 77.9033 49.0498 77.8511 49.0308C77.7989 49.0118 77.7515 48.9801 77.7123 48.9381C74.9007 45.9337 75.0459 43.0259 75.6598 41.1145C76.8251 37.4814 80.4646 34.8871 83.1794 34.5617C84.9351 34.3567 87.4968 34.7397 88.9385 36.507C89.9413 37.7356 90.2256 39.3877 89.7867 41.4364C88.5777 47.0284 83.1262 49.9328 82.8951 50.0531C82.8461 50.08 82.7922 50.0945 82.7373 50.0955ZM80.8113 44.2205C80.8913 44.2207 80.969 44.2495 81.0323 44.3025C81.0956 44.3555 81.1409 44.4298 81.1612 44.5137C81.5789 46.1308 82.1549 47.6947 82.8795 49.1787C84.0228 48.5009 88.1106 45.7676 89.0838 41.2602C89.468 39.4809 89.24 38.0575 88.398 37.0239C87.2203 35.5801 84.9616 35.1379 83.2575 35.3378C80.7582 35.6327 77.3812 38.1253 76.3409 41.3653C75.602 43.6664 76.1425 45.9557 77.9029 48.0163C78.6667 46.6898 79.5567 45.4539 80.5583 44.329C80.6264 44.2584 80.7172 44.2195 80.8113 44.2205Z" fill="#151515"/>
<path d="M82.898 25.4551L84.3694 30.1557L86.8687 38.2183C85.0302 41.0803 82.6918 42.2394 79.7318 41.2684L78.8149 37.4269L77.4263 31.6096L82.898 25.4551Z" fill="white"/>
<path d="M81.7032 41.9992C81.0018 41.993 80.3051 41.8754 79.6351 41.6502C79.5758 41.6308 79.5221 41.5952 79.4791 41.5469C79.4362 41.4985 79.4054 41.439 79.3898 41.374L77.0843 31.7152C77.0688 31.6505 77.0689 31.5825 77.0845 31.5179C77.1001 31.4532 77.1307 31.3939 77.1733 31.3457L82.6404 25.1861C82.6833 25.1378 82.737 25.1023 82.7963 25.083C82.8556 25.0636 82.9184 25.0612 82.9788 25.0758C83.0392 25.0905 83.0951 25.1217 83.1412 25.1665C83.1872 25.2114 83.2219 25.2683 83.2418 25.3319L87.2202 38.095C87.2384 38.153 87.2437 38.2148 87.2359 38.2754C87.228 38.3361 87.2071 38.3938 87.1749 38.4441C85.6535 40.8097 83.8197 41.9992 81.7032 41.9992ZM80.0365 40.9605C82.6076 41.723 84.7226 40.8029 86.4751 38.156L82.7466 26.191L77.8341 31.7287L80.0365 40.9605Z" fill="#151515"/>
<path d="M81.0111 27.582C81.6921 29.7019 84.3023 36.8053 79.3538 39.6589L77.4341 31.615L81.0111 27.582Z" fill="#151515"/>
<path d="M70.5316 29.1193C71.5297 32.9947 73.3432 37.514 77.5857 35.9584C82.6325 34.108 85.3489 29.4972 84.5397 24.134C83.7306 18.7709 80.9705 16.1782 75.1536 17.9066C74.6587 18.0525 74.1759 18.2429 73.7103 18.476C70.4691 20.1112 69.2476 23.4918 70.0333 27.0385C70.1817 27.679 70.341 28.3873 70.5316 29.1193Z" fill="white"/>
<path d="M76.3081 36.7443C75.4845 36.8223 74.6581 36.633 73.9339 36.2004C71.4596 34.7194 70.4006 30.7542 69.6024 27.1516C68.5949 22.6069 70.7802 18.7027 75.0398 17.4369C75.1528 17.4091 75.2713 17.4296 75.3707 17.4943C75.4701 17.5589 75.5426 17.6627 75.5732 17.7839C75.6038 17.9052 75.5901 18.0345 75.535 18.1451C75.4798 18.2556 75.3875 18.3388 75.2772 18.3774C71.4612 19.511 69.5758 22.8679 70.4756 26.9246C71.0191 29.3799 72.0376 33.9501 74.3681 35.3481C75.2585 35.8818 76.2644 35.9293 77.4422 35.4972C79.3166 34.8075 80.8692 33.7349 82.0376 32.3098C82.1167 32.2131 82.228 32.1546 82.3469 32.1469C82.4659 32.1393 82.5827 32.1833 82.6718 32.2691C82.7608 32.3549 82.8148 32.4756 82.8219 32.6047C82.8289 32.7337 82.7884 32.8605 82.7093 32.9571C81.4597 34.4822 79.7321 35.6853 77.7311 36.4207C77.2712 36.5929 76.7931 36.7016 76.3081 36.7443Z" fill="#151515"/>
<path d="M86.6299 24.5048C86.253 25.3925 85.8057 26.243 85.2928 27.0465L82.9779 27.6972L82.25 25.7773C82.25 25.7773 80.1069 26.0366 79.5633 24.8759C79.5498 24.8496 79.5378 24.8224 79.5274 24.7945C79.3712 24.4099 78.7464 22.6831 78.5496 19.8533C78.5496 19.8533 74.8336 22.5391 72.6811 23.2034C71.9001 23.4423 70.9348 23.2881 70.0038 22.9899C68.1419 22.3934 66.1581 19.6449 66.1285 17.5386C66.1285 17.525 66.1285 17.5114 66.1285 17.4979C66.1191 14.4054 67.8951 16.2151 67.8951 16.2151C67.8951 16.2151 67.9201 13.7191 69.2884 13.2819C70.6567 12.8447 71.9079 14.9053 71.9079 14.9053C74.4812 13.7222 77.2365 13.0738 80.0304 12.9938C85.5724 12.8701 84.8726 17.159 84.8726 17.159C84.8726 17.159 89.0651 17.786 86.6299 24.5048Z" fill="#151515"/>
<path d="M82.7745 27.7233C82.22 25.4323 83.4212 22.9871 85.5393 22.4075C85.9603 22.2904 86.3976 22.2576 86.8295 22.311C89.5521 22.6499 89.7786 29.3754 83.304 29.9109L82.7745 27.7233Z" fill="white"/>
<path d="M83.3042 30.3022C83.2085 30.306 83.1153 30.2684 83.0451 30.1977C82.975 30.127 82.9336 30.029 82.9301 29.9252C82.9265 29.8214 82.9612 29.7203 83.0264 29.6442C83.0915 29.5681 83.1819 29.5231 83.2776 29.5193C86.9093 29.2177 88.2355 26.9572 88.2761 25.1136C88.2995 23.8257 87.6763 22.8107 86.7953 22.7006C86.4067 22.653 86.0134 22.6829 85.6347 22.7887C84.1539 23.1937 83.0746 24.6916 83.0105 26.4285C83.0093 26.4801 82.9986 26.531 82.979 26.5781C82.9594 26.6251 82.9313 26.6674 82.8963 26.7025C82.8614 26.7376 82.8203 26.7647 82.7755 26.7822C82.7307 26.7998 82.6832 26.8074 82.6356 26.8047C82.5882 26.8027 82.5417 26.7907 82.4986 26.7691C82.4555 26.7476 82.4167 26.7171 82.3845 26.6793C82.3523 26.6416 82.3273 26.5973 82.3109 26.549C82.2945 26.5007 82.287 26.4494 82.2889 26.398C82.3654 24.3154 83.6681 22.5192 85.4566 22.0295C85.92 21.9003 86.4012 21.8641 86.8765 21.9228C88.1355 22.0804 89.0258 23.4292 88.9962 25.1288C88.9493 27.4723 87.1811 29.987 83.3323 30.3005H83.3042V30.3022Z" fill="#151515"/>
<path d="M141.271 175.683C141.271 175.683 152.645 174.158 152.712 157.974C152.78 141.789 141.917 141.059 141.917 141.059L108.467 140.915C108.467 140.915 118.795 169.397 125.526 172.433C132.256 175.47 141.271 175.683 141.271 175.683Z" fill="white"/>
<path d="M141.27 176.075H141.263C141.172 176.075 132.101 175.821 125.386 172.793C118.593 169.728 108.556 142.227 108.131 141.058C108.109 140.999 108.101 140.934 108.108 140.871C108.114 140.807 108.135 140.747 108.168 140.694C108.201 140.641 108.246 140.598 108.298 140.568C108.35 140.538 108.408 140.522 108.467 140.522L141.917 140.666C142.05 140.666 153.139 141.602 153.072 157.974C153.004 174.347 141.431 176.057 141.314 176.072L141.27 176.075ZM109.001 141.307C110.464 145.235 119.652 169.358 125.663 172.069C132.067 174.96 140.703 175.274 141.252 175.289C141.981 175.182 152.287 173.384 152.351 157.969C152.415 142.356 142.325 141.476 141.895 141.446L109.001 141.307Z" fill="#151515"/>
<path d="M129.723 150.238L145.515 150.747C145.515 150.747 149.107 158.048 144.648 164.981L129.988 164.906L129.723 150.238Z" fill="white"/>
<path d="M144.648 165.379L129.988 165.305C129.894 165.304 129.803 165.264 129.736 165.192C129.669 165.12 129.631 165.023 129.629 164.92L129.356 150.246C129.355 150.192 129.364 150.14 129.382 150.09C129.401 150.041 129.428 149.997 129.463 149.959C129.534 149.885 129.629 149.845 129.727 149.846L145.519 150.354C145.584 150.355 145.647 150.375 145.702 150.411C145.757 150.447 145.801 150.499 145.832 150.561C145.869 150.635 149.482 158.156 144.943 165.21C144.91 165.262 144.866 165.304 144.814 165.334C144.763 165.363 144.706 165.379 144.648 165.379ZM130.341 164.524L144.459 164.595C148.186 158.617 145.797 152.321 145.285 151.13L130.091 150.637L130.341 164.524Z" fill="#151515"/>
<path d="M141.916 141.058C141.916 141.058 135.319 145.25 135.852 154.287C136.385 163.324 144.648 164.987 144.648 164.987L116.391 164.841L108.462 140.914L141.916 141.058Z" fill="white"/>
<path d="M144.648 165.379L116.391 165.232C116.317 165.231 116.245 165.206 116.185 165.16C116.124 165.113 116.079 165.048 116.053 164.973L108.126 141.046C108.107 140.987 108.1 140.924 108.108 140.861C108.116 140.799 108.138 140.74 108.171 140.688C108.204 140.637 108.249 140.595 108.3 140.566C108.352 140.537 108.409 140.522 108.467 140.522L141.917 140.666C141.996 140.667 142.073 140.696 142.135 140.748C142.198 140.8 142.243 140.873 142.264 140.956C142.284 141.039 142.279 141.126 142.249 141.206C142.219 141.285 142.166 141.352 142.098 141.395C142.034 141.436 135.694 145.584 136.213 154.262C136.722 162.88 144.388 164.534 144.715 164.598C144.762 164.603 144.808 164.618 144.85 164.642C144.892 164.666 144.929 164.699 144.96 164.738C144.99 164.778 145.013 164.824 145.027 164.873C145.041 164.922 145.046 164.974 145.041 165.025C145.037 165.077 145.023 165.126 145.001 165.172C144.979 165.218 144.949 165.258 144.912 165.291C144.876 165.324 144.833 165.348 144.788 165.364C144.743 165.379 144.695 165.384 144.648 165.379ZM116.649 164.453L142.381 164.585C139.81 163.38 135.858 160.528 135.491 154.314C135.074 147.255 138.957 143.035 140.802 141.448L108.982 141.309L116.649 164.453Z" fill="#151515"/>
<path d="M68.6011 52.9385C68.6011 52.9385 75.8395 56.6258 76.4939 66.6726C77.1484 76.7195 71.0175 82.286 71.0175 82.286L58.5573 81.5624C58.5573 81.5624 55.2568 57.5662 68.6011 52.9385Z" fill="white"/>
<path d="M71.0176 82.6864H70.9989L58.5387 81.9646C58.4549 81.9595 58.3753 81.9228 58.3138 81.861C58.2522 81.7991 58.2124 81.7159 58.2013 81.6257C58.1669 81.3816 55.0116 57.2431 68.4934 52.5696C68.5803 52.5392 68.6747 52.5458 68.7574 52.5882C68.8323 52.6255 76.1941 56.4857 76.8564 66.6528C77.5156 76.7827 71.3144 82.5373 71.2519 82.5949C71.1863 82.6546 71.1032 82.6871 71.0176 82.6864ZM58.876 81.1986L70.8895 81.8951C71.6799 81.1088 76.7205 75.7151 76.1348 66.7087C75.549 57.7023 69.5149 53.91 68.5715 53.3694C56.6502 57.6633 58.5574 78.3739 58.876 81.1919V81.1986Z" fill="#151515"/>
<path d="M65.9532 69.4925C65.9532 69.4925 66.7529 77.589 71.0172 82.2879L58.557 81.5643L56.9575 68.8418L65.9532 69.4925Z" fill="white"/>
<path d="M71.0175 82.6861H70.9987L58.5385 81.9642C58.4544 81.9595 58.3746 81.923 58.3127 81.8612C58.2508 81.7993 58.2107 81.7158 58.1996 81.6253L56.6 68.9028C56.5927 68.8453 56.5973 68.7867 56.6135 68.7313C56.6297 68.676 56.657 68.6252 56.6935 68.5827C56.7299 68.5402 56.7747 68.507 56.8245 68.4856C56.8742 68.4642 56.9278 68.455 56.9812 68.4589L65.9768 69.1095C66.0615 69.1158 66.1414 69.1542 66.2025 69.2181C66.2637 69.2819 66.3021 69.3671 66.3111 69.4586C66.3189 69.5383 67.1499 77.4771 71.2736 82.0202C71.3234 82.0751 71.3572 82.1447 71.3707 82.2204C71.3842 82.296 71.3768 82.3743 71.3494 82.4454C71.3221 82.5165 71.276 82.5773 71.2169 82.6201C71.1579 82.6629 71.0885 82.6859 71.0175 82.6861ZM58.8744 81.1983L70.1552 81.8388C66.7828 77.5669 65.8222 71.3616 65.6332 69.8551L57.3764 69.2587L58.8744 81.1983Z" fill="#151515"/>
<path d="M141.271 175.684H72.9511C72.9511 175.684 57.2232 169.753 50.8251 151.252C44.4271 132.751 26.5749 115.105 17.2418 105.278C7.90879 95.4515 -4.74822 69.8624 9.31304 49.9043L68.6009 52.9409C68.6009 52.9409 56.9061 61.583 61.3563 78.5825C64.6662 91.2389 74.5506 100.793 87.4763 111.927C100.402 123.062 109.198 134.336 113.863 148.068C118.229 160.928 129.371 174.794 141.271 175.684Z" fill="white"/>
<path d="M141.27 176.075H72.951C72.9106 176.075 72.8704 176.068 72.8323 176.053C72.6761 175.994 56.8701 169.851 50.4955 151.389C44.627 134.412 28.7944 117.882 19.3349 108.009C18.5101 107.149 17.7276 106.332 16.9919 105.563C8.12742 96.2173 -5.48242 70.2605 9.02558 49.6703C9.06154 49.6209 9.1077 49.5814 9.16034 49.5549C9.21297 49.5284 9.27062 49.5157 9.32861 49.5178L68.6165 52.5544C68.6922 52.5582 68.7649 52.5877 68.8242 52.6388C68.8836 52.6899 68.9267 52.76 68.9472 52.8392C68.9678 52.9183 68.9649 53.0025 68.9389 53.0797C68.9129 53.157 68.8651 53.2234 68.8023 53.2695C68.6883 53.3542 57.3778 61.9573 61.7014 78.4807C65.0582 91.3167 75.4612 101.086 87.698 111.626C101.361 123.386 109.782 134.925 114.204 147.926C118.482 160.528 129.432 174.399 141.297 175.286C141.394 175.289 141.485 175.335 141.55 175.411C141.616 175.488 141.651 175.59 141.648 175.695C141.644 175.8 141.602 175.898 141.532 175.97C141.461 176.041 141.367 176.079 141.27 176.075ZM73.0104 175.292H137.198C126.652 172.019 117.389 159.599 113.52 148.204C109.146 135.337 100.799 123.908 87.2466 112.232C74.9067 101.606 64.4209 91.7488 61.0047 78.6806C57.2231 64.2297 65.0441 55.635 67.6136 53.2746L9.48637 50.3041C-4.54521 70.4503 8.80221 95.8343 17.4933 104.997C18.2227 105.764 19.0037 106.581 19.8285 107.44C29.3318 117.363 45.2393 133.971 51.1641 151.113C57.2356 168.677 71.9904 174.881 73.0151 175.292H73.0104Z" fill="#151515"/>
<path d="M11.3562 63.4758C10.5596 63.5589 9.92387 68.5713 10.4565 71.8976C10.9892 75.224 11.7233 76.2356 11.9889 76.5237C12.2544 76.8117 22.923 77.3184 23.4494 77.2472C23.9758 77.1761 23.1822 73.5599 23.1166 71.1029C23.051 68.6458 23.3838 65.2483 23.3838 64.7416C23.3838 64.235 12.3903 63.3691 11.3562 63.4758Z" fill="#A06ECE"/>
<path d="M29.6832 71.806C29.6915 72.2251 29.8449 72.6255 30.1129 72.9275C30.3809 73.2296 30.7438 73.4111 31.1296 73.4361L52.348 74.8121C52.585 74.8274 52.8222 74.788 53.0442 74.6966C53.2661 74.6052 53.4677 74.4639 53.6356 74.2818C53.8036 74.0998 53.9341 73.8813 54.0185 73.6406C54.103 73.3999 54.1394 73.1425 54.1256 72.8854C54.1028 72.4343 53.9264 72.0083 53.6306 71.6902C53.3347 71.3721 52.9406 71.1845 52.5245 71.1638L31.292 70.0945C31.0808 70.084 30.8699 70.1208 30.6723 70.2026C30.4748 70.2844 30.2949 70.4095 30.144 70.5701C29.993 70.7307 29.8742 70.9234 29.7949 71.136C29.7156 71.3486 29.6776 71.5767 29.6832 71.806Z" fill="#F9CC00"/>
<path d="M16.3734 86.7299C15.6096 86.8654 16.7483 91.1661 18.4572 93.9435C20.166 96.7208 21.2547 97.5189 21.6234 97.7426C21.992 97.9663 32.8027 97.5342 33.3088 97.4291C33.8149 97.3241 31.7374 94.3247 30.8018 92.2456C29.8661 90.1664 28.9945 87.2586 28.8165 86.8231C28.6384 86.3876 17.3591 86.5553 16.3734 86.7299Z" fill="#A06ECE"/>
<path d="M37.8871 92.3737C37.8954 92.7928 38.0488 93.1932 38.3168 93.4952C38.5848 93.7973 38.9477 93.9788 39.3335 94.0038L60.5503 95.3798C60.7873 95.3951 61.0246 95.3557 61.2465 95.2643C61.4685 95.1729 61.6701 95.0316 61.838 94.8495C62.0059 94.6675 62.1364 94.449 62.2209 94.2083C62.3053 93.9676 62.3418 93.7102 62.3279 93.4531C62.3033 93.0037 62.1263 92.5801 61.831 92.2638C61.5357 91.9475 61.143 91.7609 60.7284 91.74L39.4959 90.6707C39.2854 90.6602 39.0751 90.6967 38.8781 90.7781C38.6811 90.8594 38.5017 90.9837 38.3508 91.1434C38.1999 91.3031 38.0809 91.4947 38.0012 91.7063C37.9214 91.918 37.8826 92.1451 37.8871 92.3737Z" fill="#F9CC00"/>
<path d="M30.2299 106.01C29.4661 106.146 30.6048 110.446 32.3136 113.224C34.0225 116.001 35.1112 116.799 35.4798 117.023C35.8485 117.247 46.6592 116.814 47.1653 116.709C47.6714 116.604 45.5939 113.605 44.6582 111.526C43.7226 109.447 42.851 106.539 42.6729 106.103C42.4948 105.668 31.2202 105.836 30.2299 106.01Z" fill="#A06ECE"/>
<path d="M51.7436 111.663C51.7674 112.081 51.9356 112.475 52.2146 112.765C52.4936 113.055 52.863 113.221 53.2494 113.229L74.4928 113.681C74.7302 113.686 74.966 113.637 75.1845 113.536C75.403 113.435 75.5993 113.285 75.7605 113.096C75.9217 112.906 76.044 112.682 76.1195 112.438C76.195 112.194 76.2219 111.935 76.1985 111.678C76.1576 111.23 75.9652 110.814 75.6583 110.51C75.3514 110.207 74.9518 110.037 74.5365 110.035L53.2853 109.884C53.0741 109.883 52.8651 109.929 52.6711 110.02C52.4771 110.11 52.3024 110.243 52.1578 110.41C52.0131 110.577 51.9017 110.774 51.8305 110.99C51.7592 111.205 51.7297 111.434 51.7436 111.663Z" fill="#F9CC00"/>
<path d="M46.3047 126.303C45.5471 126.473 46.8498 130.719 48.6633 133.42C50.4768 136.121 51.5952 136.867 51.9717 137.074C52.3481 137.281 63.1338 136.362 63.6352 136.235C64.1366 136.108 61.9467 133.204 60.9314 131.168C59.9161 129.133 58.9351 126.268 58.7446 125.848C58.554 125.427 47.2887 126.083 46.3047 126.303Z" fill="#A06ECE"/>
<path d="M68.0152 129.906C68.0551 130.323 68.2379 130.708 68.5272 130.985C68.8165 131.262 69.1913 131.411 69.5772 131.402L90.8207 130.894C91.0581 130.888 91.2917 130.828 91.5061 130.718C91.7205 130.607 91.9109 130.448 92.0647 130.252C92.2185 130.056 92.3322 129.826 92.3983 129.579C92.4644 129.331 92.4814 129.072 92.4483 128.816C92.3903 128.371 92.1829 127.965 91.8658 127.676C91.5486 127.387 91.1442 127.235 90.7301 127.249L69.4866 128.059C69.2757 128.068 69.0687 128.123 68.8785 128.222C68.6882 128.322 68.5188 128.462 68.3808 128.636C68.2428 128.809 68.1391 129.011 68.0762 129.23C68.0134 129.448 67.9926 129.678 68.0152 129.906Z" fill="#F9CC00"/>
<path d="M58.0981 144.926C57.3406 145.095 58.6433 149.342 60.4568 152.043C62.2703 154.744 63.3887 155.49 63.7651 155.696C64.1416 155.903 74.9273 154.985 75.4287 154.858C75.9301 154.73 73.7402 151.823 72.7248 149.789C71.7095 147.756 70.7286 144.889 70.538 144.468C70.3475 144.048 59.0822 144.706 58.0981 144.926Z" fill="#A06ECE"/>
<path d="M79.8087 148.531C79.8486 148.948 80.0313 149.333 80.3207 149.61C80.61 149.887 80.9848 150.036 81.3707 150.027L102.614 149.519C102.852 149.513 103.085 149.453 103.3 149.343C103.514 149.232 103.704 149.073 103.858 148.877C104.012 148.681 104.126 148.451 104.192 148.204C104.258 147.956 104.275 147.697 104.242 147.441C104.184 146.996 103.976 146.59 103.659 146.301C103.342 146.012 102.938 145.86 102.524 145.874L81.2801 146.684C81.0692 146.693 80.8622 146.748 80.6719 146.847C80.4817 146.947 80.3123 147.087 80.1743 147.26C80.0363 147.434 79.9326 147.636 79.8697 147.855C79.8068 148.073 79.786 148.303 79.8087 148.531Z" fill="#F9CC00"/>
<path d="M70.7002 161.482C69.9426 161.651 71.2453 165.898 73.0588 168.599C74.8723 171.3 75.9907 172.046 76.3672 172.252C76.7436 172.459 87.5293 171.541 88.0307 171.414C88.5322 171.287 86.3422 168.382 85.3269 166.347C84.3116 164.312 83.3306 161.446 83.1401 161.026C82.9495 160.606 71.6843 161.255 70.7002 161.482Z" fill="#A06ECE"/>
<path d="M92.4107 165.08C92.4506 165.496 92.6333 165.881 92.9227 166.158C93.212 166.435 93.5868 166.585 93.9727 166.576L115.216 166.068C115.454 166.064 115.689 166.006 115.905 165.897C116.121 165.787 116.313 165.629 116.469 165.433C116.624 165.237 116.739 165.008 116.807 164.76C116.874 164.512 116.892 164.251 116.859 163.995C116.801 163.55 116.594 163.144 116.277 162.855C115.96 162.565 115.555 162.413 115.141 162.428L93.8977 163.238C93.6859 163.244 93.4776 163.298 93.2859 163.396C93.0941 163.494 92.9231 163.634 92.7835 163.806C92.6439 163.979 92.5387 164.182 92.4746 164.401C92.4104 164.62 92.3887 164.851 92.4107 165.08Z" fill="#F9CC00"/>
<path d="M128.273 68.4981C128.273 68.4981 127.07 75.5457 116.603 75.6761C109.76 75.7592 106.517 71.7787 105.093 69.0048C104.337 67.5373 97.9559 51.1411 97.4748 46.4422C96.9937 41.7432 98.5572 34.6957 107.036 35.4108C114.885 36.0784 126.684 64.5719 128.123 68.1321C128.132 68.1611 128.143 68.189 128.157 68.2151C128.165 68.2287 128.171 68.2429 128.176 68.2575C128.225 68.388 128.257 68.471 128.262 68.493L128.273 68.4981Z" fill="#A06ECE"/>
<path d="M116.391 76.0697C109.362 76.0697 106.099 71.7741 104.774 69.195C104.035 67.7598 97.6062 51.2957 97.1204 46.4884C96.9642 45.0243 96.7299 40.017 99.932 37.0532C100.005 36.9899 100.098 36.9599 100.191 36.9695C100.285 36.9792 100.371 37.0277 100.431 37.1049C100.492 37.1821 100.523 37.2819 100.517 37.3832C100.512 37.4845 100.47 37.5795 100.401 37.648C97.4719 40.3593 97.7015 45.0328 97.8421 46.4002C98.3107 50.989 104.695 67.4124 105.416 68.8155C106.939 71.7792 110.077 75.2886 116.397 75.2886H116.608C122.367 75.2174 125.224 73.0111 126.605 71.1742C126.635 71.1339 126.672 71.1004 126.713 71.0756C126.755 71.0508 126.801 71.0352 126.849 71.0297C126.896 71.0243 126.944 71.0291 126.99 71.0438C127.035 71.0586 127.078 71.083 127.115 71.1157C127.152 71.1483 127.182 71.1886 127.205 71.2342C127.227 71.2798 127.241 71.3297 127.246 71.3812C127.25 71.4326 127.246 71.4845 127.232 71.5339C127.218 71.5834 127.195 71.6293 127.164 71.669C125.685 73.6364 122.653 75.9969 116.616 76.0748H116.391V76.0697Z" fill="#151515"/>
<path d="M105.568 65.6257C105.497 65.6255 105.428 65.6028 105.369 65.5604C105.31 65.518 105.264 65.4578 105.237 65.3872C105.209 65.3167 105.201 65.2389 105.214 65.1635C105.227 65.0881 105.26 65.0184 105.309 64.9631C105.384 64.8801 112.875 56.6752 124.285 61.4775C124.375 61.515 124.447 61.5895 124.485 61.6845C124.524 61.7795 124.526 61.8873 124.492 61.9841C124.457 62.081 124.388 62.159 124.301 62.2009C124.213 62.2429 124.114 62.2454 124.025 62.2078C113.073 57.5987 105.905 65.4274 105.827 65.5088C105.793 65.5461 105.753 65.5756 105.708 65.5957C105.664 65.6158 105.616 65.626 105.568 65.6257Z" fill="#151515"/>
<path d="M128.273 68.4981C128.273 68.4981 127.297 74.2307 119.429 75.4457C118.493 75.5842 117.549 75.6589 116.605 75.6694C109.762 75.7524 106.519 71.772 105.094 68.998C106.655 66.9053 108.687 65.2851 110.994 64.294C112.963 63.4469 115.054 62.9845 117.172 62.9282C117.856 62.9017 118.542 62.9124 119.226 62.9604C125.505 63.3891 127.609 66.9697 128.129 68.1338C128.138 68.1628 128.149 68.1907 128.164 68.2168C128.171 68.2304 128.177 68.2446 128.182 68.2592C128.216 68.3356 128.244 68.4143 128.268 68.4947L128.273 68.4981Z" fill="#A06ECE"/>
<path d="M116.391 76.0696C109.362 76.0696 106.097 71.774 104.773 69.1949C104.738 69.1272 104.722 69.0498 104.728 68.9726C104.734 68.8954 104.761 68.8218 104.805 68.7611C106.402 66.6132 108.486 64.9515 110.852 63.9385C112.859 63.0738 114.99 62.5995 117.148 62.5371C117.846 62.5099 118.544 62.5206 119.24 62.5693C122.192 62.7709 124.599 63.6707 126.389 65.2466C126.464 65.312 126.511 65.4068 126.521 65.5101C126.531 65.6134 126.503 65.7167 126.442 65.7974C126.382 65.878 126.295 65.9294 126.2 65.9402C126.104 65.951 126.009 65.9204 125.935 65.855C124.27 64.3858 122.002 63.5386 119.202 63.3505C118.578 63.3047 117.897 63.2945 117.181 63.32C115.108 63.3789 113.06 63.8338 111.132 64.6637C108.958 65.595 107.033 67.1001 105.532 69.0424C107.114 71.9875 110.296 75.3477 116.603 75.285C117.533 75.2743 118.461 75.2007 119.382 75.0647C123.398 74.4411 125.524 72.6026 126.602 71.1673C126.663 71.0879 126.75 71.0377 126.844 71.0277C126.939 71.0178 127.034 71.0488 127.107 71.114C127.181 71.1793 127.228 71.2735 127.238 71.3761C127.248 71.4788 127.22 71.5816 127.161 71.6621C126.003 73.2024 123.724 75.1766 119.484 75.8357C118.532 75.9766 117.573 76.053 116.613 76.0645H116.391V76.0696Z" fill="#151515"/>
<path d="M119.938 73.7918C119.878 74.3782 119.704 74.9441 119.428 75.4525C117.964 78.2146 113.389 80.5005 105.323 79.0957C98.7622 77.9519 88.2873 73.2496 82.2439 70.3469C79.3901 68.9794 77.5234 68.0135 77.5234 68.0135L78.7028 63.4773C78.7028 63.4773 78.9777 63.4773 79.4728 63.4773C83.7075 63.5247 104.231 63.7636 110.993 64.2974C112.962 63.449 115.054 62.9854 117.172 62.9282C117.857 62.9017 118.542 62.9124 119.226 62.9604L119.501 66.6511L119.904 72.1803L119.918 72.3498C119.974 72.8282 119.981 73.3118 119.938 73.7918Z" fill="white"/>
<path d="M109.946 79.9144C108.376 79.9054 106.809 79.7609 105.26 79.4823C98.5807 78.3182 87.8778 73.4837 82.0921 70.7047C79.2664 69.349 77.3811 68.3764 77.3623 68.3662C77.2855 68.3265 77.2242 68.2587 77.189 68.1746C77.1538 68.0906 77.1472 67.9958 77.1702 67.907L78.3558 63.369C78.3772 63.2871 78.4226 63.215 78.4852 63.1637C78.5477 63.1123 78.624 63.0845 78.7025 63.0844C78.7025 63.0844 78.9774 63.0844 79.4835 63.0844C86.8422 63.1657 104.585 63.408 110.943 63.8977C112.927 63.055 115.031 62.5923 117.161 62.5303C117.858 62.503 118.556 62.5138 119.252 62.5624C119.339 62.5687 119.42 62.6084 119.482 62.6743C119.544 62.7403 119.581 62.8281 119.588 62.9217L120.285 72.2975C120.344 72.8035 120.35 73.3151 120.304 73.8226C120.238 74.4634 120.048 75.0819 119.746 75.6374C118.556 77.8844 115.41 79.9144 109.946 79.9144ZM77.9543 67.8002C78.5791 68.1171 80.1974 68.9373 82.3904 69.9879C88.1449 72.7516 98.7822 77.559 105.382 78.7079C113.418 80.1076 117.745 77.842 119.115 75.2562C119.367 74.796 119.527 74.2832 119.584 73.7514C119.624 73.3002 119.618 72.8455 119.565 72.3958L119.549 72.2263L118.89 63.3301C118.353 63.3013 117.781 63.2979 117.181 63.3199C115.108 63.3789 113.06 63.8337 111.132 64.6637C111.082 64.6858 111.029 64.6951 110.975 64.6908C104.537 64.1824 85.2396 63.9367 79.4788 63.8723H78.9853L77.9543 67.8002Z" fill="#151515"/>
<path d="M82.2439 70.3452C79.3901 68.9777 77.5234 68.0118 77.5234 68.0118L78.7028 63.4756C78.7028 63.4756 78.9777 63.4756 79.4728 63.4756L82.2439 70.3452Z" fill="#151515"/>
<path d="M119.496 66.6494C115.401 64.8176 110.993 64.3008 110.993 64.3008C112.962 63.4512 115.054 62.9865 117.172 62.9282C117.857 62.9017 118.542 62.9124 119.226 62.9604L119.496 66.6494Z" fill="#151515"/>
<path d="M72.7185 58.3393C72.7185 58.3393 67.6872 59.1696 67.114 57.8055C66.5407 56.4414 68.7509 54.4164 73.7244 54.4486C78.6979 54.4808 77.8278 57.5988 77.8278 57.5988C77.8278 57.5988 80.0365 59.3526 79.532 64.1701C79.0274 68.9877 77.7388 71.0431 71.8125 70.589C65.8862 70.1349 66.9874 61.8046 67.4998 60.3829C68.0121 58.9611 72.7185 58.3393 72.7185 58.3393Z" fill="white"/>
<path d="M73.3056 71.0402C72.837 71.0402 72.3293 71.0198 71.7873 70.9775C70.0004 70.8402 68.6539 70.0167 67.7854 68.5272C66.0907 65.6211 66.8092 61.2238 67.1606 60.2392C67.3543 59.6987 67.9744 59.2717 68.7367 58.9395C67.8073 58.8345 67.031 58.5583 66.7826 57.9669C66.6822 57.7146 66.6438 57.4383 66.6712 57.165C66.6986 56.8918 66.7908 56.6309 66.9388 56.4079C67.6308 55.2506 69.7755 54.0356 73.718 54.0559C75.7486 54.0712 77.1154 54.5863 77.7933 55.581C78.1525 56.1189 78.3033 56.788 78.2135 57.445C78.7633 58.0042 80.3237 59.9868 79.8801 64.2078C79.4146 68.7458 78.2509 71.0402 73.3056 71.0402ZM72.1856 58.8141C70.3753 59.1175 68.1072 59.7766 67.837 60.5239C67.5371 61.3576 66.8998 65.5313 68.3962 68.1086C69.135 69.3744 70.2925 70.0777 71.8326 70.1963C77.5527 70.6352 78.6821 68.7661 79.1741 64.1248C79.6427 59.6207 77.698 57.9804 77.6121 57.9127C77.5524 57.8643 77.5078 57.7973 77.4844 57.7207C77.4609 57.644 77.4597 57.5614 77.4809 57.4839C77.5353 57.2368 77.5395 56.9798 77.4931 56.7308C77.4467 56.4817 77.3509 56.2467 77.2122 56.0419C76.6796 55.2692 75.4721 54.8557 73.7195 54.8388C70.0644 54.7998 68.1119 55.8962 67.5511 56.8349C67.3762 57.1281 67.3387 57.3992 67.4402 57.6432C67.6995 58.2634 69.9504 58.321 72.0872 58.0381C72.3434 57.9957 72.5465 57.9669 72.6714 57.9516C72.7663 57.9375 72.8625 57.9648 72.9388 58.0275C73.0151 58.0903 73.0653 58.1834 73.0783 58.2863C73.0914 58.3892 73.0662 58.4935 73.0084 58.5763C72.9505 58.6591 72.8647 58.7136 72.7698 58.7277C72.6168 58.7514 72.4168 58.7836 72.1856 58.8141Z" fill="#151515"/>
<path d="M11.1269 49.7213C11.1269 49.7213 14.1056 54.1982 15.4037 53.6864C16.7017 53.1747 16.4971 50.0398 12.9825 46.217C9.468 42.3941 8.03563 45.2375 8.03563 45.2375C8.03563 45.2375 5.33178 44.7631 2.52015 48.5266C-0.291473 52.2902 -0.747581 54.7286 3.7026 58.9988C8.15278 63.269 12.8607 56.5841 13.4371 55.1912C14.0135 53.7983 11.1269 49.7213 11.1269 49.7213Z" fill="white"/>
<path d="M6.8358 60.7995C5.63774 60.7995 4.50684 60.2912 3.46341 59.2931C-1.22263 54.7975 -0.663431 52.1609 2.23879 48.2787C4.70521 44.9828 7.10291 44.7964 7.86205 44.8337C8.23162 44.3051 8.77706 43.9542 9.38189 43.856C10.5159 43.6865 11.8155 44.3813 13.2432 45.9386C16.0251 48.9701 16.7202 51.4898 16.4438 52.8353C16.4017 53.1063 16.2955 53.3609 16.1356 53.5742C15.9757 53.7874 15.7676 53.952 15.5315 54.0519C14.9677 54.2722 14.2413 53.8655 13.5228 53.2199C13.8352 54.0435 13.9914 54.823 13.7711 55.3499C13.3713 56.3141 10.9814 59.9489 7.88235 60.6725C7.53866 60.7551 7.18783 60.7977 6.8358 60.7995ZM7.69647 45.6132C6.97014 45.6132 4.94733 45.9013 2.79956 48.7735C0.0863353 52.4015 -0.354151 54.5823 3.94139 58.7068C5.10197 59.8201 6.37657 60.2319 7.72459 59.9099C10.4737 59.2694 12.7683 55.8431 13.1073 55.0314C13.4119 54.2993 12.256 52.0812 11.1876 50.4663C11.0454 50.2647 10.9252 50.0867 10.833 49.9478C10.7758 49.8644 10.7515 49.7598 10.7654 49.657C10.7794 49.5542 10.8303 49.4616 10.9072 49.3996C10.984 49.3376 11.0805 49.3112 11.1752 49.3263C11.27 49.3414 11.3553 49.3967 11.4125 49.4801C11.489 49.5886 11.6124 49.7648 11.7624 49.9885C13.0729 51.8524 14.6912 53.547 15.2785 53.3148C15.5097 53.2233 15.6627 53.0047 15.733 52.6641C15.958 51.5728 15.305 49.3005 12.7262 46.4893C11.489 45.1337 10.3691 44.4982 9.4881 44.6253C9.25572 44.6614 9.03342 44.7522 8.83673 44.8912C8.64005 45.0302 8.47373 45.2142 8.3494 45.4302C8.31312 45.5008 8.25766 45.5575 8.19057 45.5927C8.12349 45.6279 8.04805 45.6398 7.97451 45.6268C7.88224 45.6151 7.78933 45.6106 7.69647 45.6132Z" fill="#151515"/>
<path d="M128.695 35.0006L113.304 24.6962C113.004 24.495 112.747 24.2263 112.551 23.9081C112.354 23.5899 112.223 23.2297 112.166 22.8518C112.11 22.4739 112.128 22.0872 112.221 21.7178C112.314 21.3484 112.479 21.005 112.704 20.7106L123.131 7.12562C123.511 6.63102 124.042 6.30164 124.628 6.19799C125.213 6.09433 125.814 6.22335 126.319 6.56135L137.801 14.2477C138.306 14.586 138.681 15.1102 138.858 15.7243C139.035 16.3384 139.002 17.0012 138.765 17.591L132.247 33.7941C132.106 34.1449 131.897 34.4588 131.634 34.7144C131.371 34.9701 131.061 35.1616 130.724 35.2759C130.388 35.3903 130.032 35.4249 129.682 35.3774C129.332 35.3299 128.995 35.2014 128.695 35.0006Z" fill="white"/>
<path d="M129.99 35.7901C129.466 35.7898 128.953 35.6314 128.508 35.3325L113.111 25.0298C112.766 24.7993 112.47 24.4909 112.245 24.1256C112.019 23.7603 111.869 23.3466 111.803 22.9126C111.738 22.4786 111.76 22.0345 111.867 21.6104C111.974 21.1863 112.164 20.7921 112.423 20.4546L122.85 6.86957C123.287 6.30523 123.896 5.92955 124.566 5.81077C125.236 5.692 125.924 5.838 126.503 6.22226L137.986 13.9086C138.563 14.2983 138.992 14.8996 139.195 15.6033C139.398 16.307 139.361 17.0664 139.092 17.7434L132.573 33.9447C132.355 34.4915 131.994 34.9572 131.535 35.285C131.076 35.6127 130.539 35.7882 129.99 35.7901ZM125.03 6.55778C124.721 6.55699 124.416 6.62989 124.136 6.77132C123.856 6.91275 123.608 7.11926 123.409 7.37624L112.983 20.9613C112.79 21.2124 112.649 21.5055 112.57 21.8207C112.491 22.136 112.475 22.4661 112.523 22.7885C112.572 23.111 112.684 23.4184 112.852 23.6899C113.019 23.9614 113.239 24.1907 113.495 24.3622L128.887 34.6666C129.143 34.838 129.431 34.9478 129.73 34.9884C130.028 35.029 130.332 34.9996 130.619 34.9021C130.907 34.8045 131.171 34.6412 131.396 34.4232C131.62 34.2051 131.798 33.9373 131.919 33.638L138.437 17.4349C138.637 16.9311 138.665 16.3661 138.513 15.8426C138.362 15.319 138.043 14.8715 137.614 14.5814L126.132 6.89499C125.801 6.67356 125.419 6.55677 125.03 6.55778Z" fill="#151515"/>
<path d="M127.456 9.68105L130.944 3.55195C131.539 2.50661 132.492 1.76036 133.594 1.47737C134.696 1.19438 135.856 1.39784 136.82 2.04297C137.784 2.68811 138.471 3.72208 138.732 4.91743C138.993 6.11278 138.806 7.37159 138.211 8.41693L134.723 14.5477C134.684 14.6167 134.657 14.6934 134.645 14.7735C134.633 14.8535 134.636 14.9353 134.653 15.0142C134.67 15.0931 134.702 15.1676 134.745 15.2334C134.789 15.2991 134.844 15.3549 134.908 15.3975C134.972 15.4402 135.042 15.4688 135.116 15.4817C135.19 15.4947 135.265 15.4918 135.338 15.4731C135.411 15.4545 135.479 15.4205 135.54 15.3731C135.601 15.3256 135.652 15.2657 135.691 15.1967L139.179 9.06594C139.572 8.41049 139.841 7.6764 139.969 6.90681C140.097 6.13722 140.081 5.34768 139.924 4.58459C139.766 3.82151 139.47 3.10028 139.052 2.46332C138.633 1.82636 138.102 1.28652 137.489 0.875543C136.876 0.464562 136.193 0.190734 135.481 0.0701583C134.768 -0.0504174 134.041 -0.0153081 133.342 0.173424C132.642 0.362155 131.984 0.7007 131.407 1.16915C130.83 1.63761 130.345 2.22651 129.981 2.90125L126.493 9.03205C126.413 9.17137 126.388 9.33917 126.423 9.49854C126.458 9.65791 126.549 9.79579 126.678 9.88185C126.806 9.96792 126.961 9.99511 127.108 9.95745C127.255 9.9198 127.382 9.82037 127.461 9.68105H127.456Z" fill="#F9CC00"/>
<path d="M181.45 88.5799C179.912 88.5799 178.437 89.2427 177.349 90.4227C176.261 91.6026 175.65 93.203 175.65 94.8716C175.65 93.203 175.039 91.6026 173.952 90.4227C172.864 89.2427 171.389 88.5799 169.851 88.5799C170.612 88.5799 171.366 88.4171 172.07 88.1009C172.774 87.7847 173.413 87.3213 173.952 86.737C174.49 86.1528 174.917 85.4592 175.209 84.6958C175.5 83.9325 175.65 83.1143 175.65 82.2881C175.65 83.1143 175.8 83.9325 176.092 84.6958C176.383 85.4592 176.811 86.1528 177.349 86.737C177.888 87.3213 178.527 87.7847 179.231 88.1009C179.934 88.4171 180.688 88.5799 181.45 88.5799Z" fill="#F9CC00"/>
<path d="M165.741 106.501C165.12 106.501 164.524 106.769 164.084 107.245C163.645 107.722 163.398 108.368 163.398 109.043C163.398 108.368 163.151 107.722 162.712 107.245C162.273 106.769 161.677 106.501 161.055 106.501C161.677 106.501 162.273 106.233 162.712 105.756C163.151 105.28 163.398 104.633 163.398 103.959C163.398 104.633 163.645 105.28 164.084 105.756C164.524 106.233 165.12 106.501 165.741 106.501Z" fill="#F9CC00"/>
<path d="M49.7895 12.4299C48.6353 12.4299 47.5284 12.9273 46.7123 13.8127C45.8962 14.698 45.4377 15.8988 45.4377 17.1509C45.4377 15.8988 44.9792 14.698 44.1631 13.8127C43.347 12.9273 42.2401 12.4299 41.0859 12.4299C42.2401 12.4299 43.347 11.9326 44.1631 11.0472C44.9792 10.1619 45.4377 8.96106 45.4377 7.70898C45.4377 8.96106 45.8962 10.1619 46.7123 11.0472C47.5284 11.9326 48.6353 12.4299 49.7895 12.4299Z" fill="#F9CC00"/>
<path d="M27.0045 140.914C25.596 140.914 24.2452 141.521 23.2492 142.601C22.2532 143.682 21.6937 145.147 21.6937 146.675C21.6937 145.147 21.1341 143.682 20.1382 142.601C19.1422 141.521 17.7913 140.914 16.3828 140.914C17.7913 140.914 19.1422 140.307 20.1382 139.226C21.1341 138.146 21.6937 136.68 21.6937 135.152C21.6937 136.68 22.2532 138.146 23.2492 139.226C24.2452 140.307 25.596 140.914 27.0045 140.914Z" fill="#F9CC00"/>
<path d="M136.469 58.4254C137.866 58.4254 138.998 57.1971 138.998 55.6819C138.998 54.1668 137.866 52.9385 136.469 52.9385C135.072 52.9385 133.94 54.1668 133.94 55.6819C133.94 57.1971 135.072 58.4254 136.469 58.4254Z" fill="#A06ECE"/>
<path d="M154.139 94.3375C154.936 94.3375 155.582 93.6365 155.582 92.7718C155.582 91.9071 154.936 91.2061 154.139 91.2061C153.341 91.2061 152.695 91.9071 152.695 92.7718C152.695 93.6365 153.341 94.3375 154.139 94.3375Z" fill="#A06ECE"/>
<path d="M2.7963 166.008C3.99197 166.008 4.96125 164.956 4.96125 163.659C4.96125 162.362 3.99197 161.311 2.7963 161.311C1.60063 161.311 0.631348 162.362 0.631348 163.659C0.631348 164.956 1.60063 166.008 2.7963 166.008Z" fill="#A06ECE"/>
<path d="M3.87912 32.2149C5.40692 32.2149 6.64545 30.8713 6.64545 29.2139C6.64545 27.5565 5.40692 26.2129 3.87912 26.2129C2.35132 26.2129 1.11279 27.5565 1.11279 29.2139C1.11279 30.8713 2.35132 32.2149 3.87912 32.2149Z" fill="#A06ECE"/>
<path d="M36.2407 38.4791C37.0378 38.4791 37.684 37.7781 37.684 36.9134C37.684 36.0487 37.0378 35.3477 36.2407 35.3477C35.4435 35.3477 34.7974 36.0487 34.7974 36.9134C34.7974 37.7781 35.4435 38.4791 36.2407 38.4791Z" fill="#A06ECE"/>
</svg>
