<svg width="27" height="20" viewBox="0 0 27 20" fill="none" xmlns="http://www.w3.org/2000/svg">
<g clip-path="url(#clip0_153_10638)">
<path d="M6.16749 18.8887C6.16749 18.5367 6.40672 18.2475 6.7977 18.2475C7.17135 18.2475 7.42348 18.5243 7.42348 18.8887C7.42348 19.2531 7.17135 19.5298 6.7977 19.5298C6.40672 19.5298 6.16749 19.2407 6.16749 18.8887ZM7.8494 18.8887V17.887H7.39766V18.131C7.25438 17.9507 7.03705 17.8376 6.7415 17.8376C6.15927 17.8376 5.70234 18.2778 5.70234 18.8892C5.70234 19.5005 6.15901 19.9407 6.7415 19.9407C7.03693 19.9407 7.25438 19.8275 7.39766 19.6473V19.8905H7.84889V18.8887H7.8494ZM23.1131 18.8887C23.1131 18.5367 23.3523 18.2475 23.7434 18.2475C24.1175 18.2475 24.3692 18.5243 24.3692 18.8887C24.3692 19.2531 24.1175 19.5298 23.7434 19.5298C23.3525 19.5298 23.1131 19.2407 23.1131 18.8887ZM24.7955 18.8887V17.083H24.3434V18.131C24.2001 17.9507 23.9828 17.8376 23.6872 17.8376C23.105 17.8376 22.6481 18.2778 22.6481 18.8892C22.6481 19.5005 23.1048 19.9407 23.6872 19.9407C23.9828 19.9407 24.2001 19.8275 24.3434 19.6473V19.8905H24.7955V18.8887ZM13.4561 18.2269C13.7472 18.2269 13.9341 18.4029 13.9819 18.7126H12.904C12.9522 18.4235 13.1343 18.2269 13.4562 18.2269H13.4561ZM13.4652 17.8365C12.8564 17.8365 12.4305 18.2635 12.4305 18.8881C12.4305 19.5248 12.8735 19.9396 13.4954 19.9396C13.8083 19.9396 14.0949 19.8644 14.347 19.659L14.1257 19.3363C13.9515 19.4705 13.7297 19.5458 13.5213 19.5458C13.2301 19.5458 12.9651 19.4159 12.8999 19.0553H14.4425C14.4469 19.0012 14.4515 18.9465 14.4515 18.888C14.4469 18.2637 14.0464 17.8364 13.4649 17.8364L13.4652 17.8365ZM18.919 18.888C18.919 18.536 19.1582 18.2468 19.5492 18.2468C19.9228 18.2468 20.175 18.5235 20.175 18.888C20.175 19.2524 19.9228 19.5291 19.5492 19.5291C19.1582 19.5291 18.9189 19.2399 18.9189 18.888H18.919ZM20.6008 18.888V17.887H20.1493V18.131C20.0055 17.9507 19.7887 17.8376 19.4931 17.8376C18.9109 17.8376 18.4539 18.2778 18.4539 18.8892C18.4539 19.5005 18.9106 19.9407 19.4931 19.9407C19.7887 19.9407 20.0055 19.8275 20.1493 19.6473V19.8905H20.6009V18.8887L20.6008 18.888ZM16.3679 18.888C16.3679 19.4954 16.8066 19.9395 17.4762 19.9395C17.7891 19.9395 17.9975 19.8724 18.223 19.7008L18.006 19.3488C17.8364 19.4663 17.6583 19.5291 17.4617 19.5291C17.1011 19.5248 16.836 19.2735 16.836 18.888C16.836 18.5024 17.1011 18.2512 17.4617 18.2468C17.6578 18.2468 17.8359 18.3097 18.006 18.4271L18.223 18.0752C17.9971 17.9035 17.7887 17.8364 17.4762 17.8364C16.8066 17.8364 16.3679 18.2804 16.3679 18.888ZM22.1915 17.8364C21.9309 17.8364 21.7612 17.9539 21.6438 18.1298V17.887H21.1962V19.8894H21.6484V18.7669C21.6484 18.4356 21.7961 18.2515 22.0914 18.2515C22.1881 18.2501 22.2841 18.2672 22.3739 18.3018L22.5131 17.8914C22.4132 17.8535 22.2828 17.8368 22.1913 17.8368L22.1915 17.8364ZM10.0828 18.0462C9.86546 17.9081 9.56598 17.8368 9.23563 17.8368C8.70934 17.8368 8.3705 18.0799 8.3705 18.4778C8.3705 18.8043 8.62276 19.0057 9.08728 19.0685L9.30069 19.0978C9.54839 19.1314 9.66534 19.1942 9.66534 19.3073C9.66534 19.4621 9.5008 19.5504 9.19183 19.5504C8.87894 19.5504 8.65314 19.4541 8.50087 19.341L8.28861 19.6805C8.53631 19.8564 8.8492 19.9404 9.18804 19.9404C9.78799 19.9404 10.1357 19.6681 10.1357 19.2868C10.1357 18.9348 9.86204 18.7507 9.40992 18.6879L9.19702 18.6581C9.00147 18.6337 8.84477 18.5958 8.84477 18.4615C8.84477 18.3151 8.99248 18.2271 9.24031 18.2271C9.50548 18.2271 9.76217 18.3234 9.88799 18.3987L10.0835 18.0467L10.0828 18.0462ZM15.9116 17.8371C15.651 17.8371 15.4813 17.9546 15.3644 18.1305V17.887H14.9167V19.8894H15.3685V18.7669C15.3685 18.4356 15.5162 18.2515 15.8115 18.2515C15.9082 18.2501 16.0042 18.2672 16.094 18.3018L16.2332 17.8914C16.1332 17.8535 16.0029 17.8368 15.9113 17.8368L15.9116 17.8371ZM12.0567 17.887H11.318V17.2796H10.8613V17.887H10.44V18.285H10.8613V19.1985C10.8613 19.6631 11.0484 19.9398 11.5828 19.9398C11.7789 19.9398 12.0047 19.8812 12.1479 19.7849L12.0175 19.4121C11.8827 19.4874 11.7349 19.5253 11.6175 19.5253C11.3917 19.5253 11.318 19.3911 11.318 19.1902V18.2854H12.0567V17.887ZM5.30287 19.8899V18.6332C5.30287 18.1599 4.98998 17.8415 4.48559 17.8372C4.22042 17.833 3.9469 17.9125 3.75539 18.1935C3.61211 17.9715 3.3863 17.8372 3.06886 17.8372C2.84697 17.8372 2.63015 17.9001 2.46042 18.1346V17.887H2.0083V19.8894H2.46396V18.7791C2.46396 18.4315 2.66395 18.2468 2.97279 18.2468C3.27277 18.2468 3.42453 18.4353 3.42453 18.7747V19.8891H3.8812V18.7789C3.8812 18.4313 4.08967 18.2466 4.38952 18.2466C4.69798 18.2466 4.84518 18.4351 4.84518 18.7745V19.8889L5.30287 19.8899Z" fill="#231F20"/>
<path d="M16.5913 14.167H9.9248V1.66699H16.5915L16.5913 14.167Z" fill="#FF5F00"/>
<path d="M10.6257 7.91667C10.6257 5.39159 11.8181 3.14224 13.6748 1.69266C12.2694 0.593783 10.5311 -0.00261366 8.74124 8.61048e-06C4.33228 8.61048e-06 0.758301 3.54436 0.758301 7.91667C0.758301 12.289 4.33228 15.8333 8.74124 15.8333C10.5311 15.836 12.2695 15.2396 13.675 14.1407C11.8184 12.6914 10.6257 10.4419 10.6257 7.91667Z" fill="#EB001B"/>
<path d="M26.175 7.91667C26.175 12.289 22.6012 15.8333 18.1924 15.8333C16.4025 15.8359 14.664 15.2395 13.2583 14.1407C15.1155 12.6911 16.3078 10.4419 16.3078 7.91667C16.3078 5.39146 15.1155 3.14224 13.2583 1.69266C14.6639 0.593816 16.4024 -0.0025677 18.1923 8.31014e-06C22.601 8.31014e-06 26.1748 3.54436 26.1748 7.91667" fill="#F79E1B"/>
</g>
<defs>
<clipPath id="clip0_153_10638">
<rect width="25.8333" height="20" fill="white" transform="translate(0.758301)"/>
</clipPath>
</defs>
</svg>
