<svg width="32" height="20" viewBox="0 0 32 20" fill="none" xmlns="http://www.w3.org/2000/svg">
<path d="M6.77682 6.77445C6.44086 6.54349 6.00246 6.42773 5.46162 6.42773H3.36778C3.20198 6.42773 3.11038 6.51065 3.09298 6.67633L2.24242 12.0155C2.23358 12.068 2.2467 12.1159 2.28166 12.1595C2.31642 12.2032 2.36014 12.2249 2.4125 12.2249H3.40706C3.5815 12.2249 3.67738 12.1422 3.69498 11.9763L3.9305 10.5369C3.9391 10.4671 3.96978 10.4104 4.02214 10.3667C4.07446 10.3231 4.1399 10.2946 4.21842 10.2816C4.29694 10.2686 4.37098 10.2621 4.4409 10.2621C4.51062 10.2621 4.59346 10.2665 4.68958 10.2752C4.78546 10.2839 4.84658 10.2881 4.87278 10.2881C5.62302 10.2881 6.2119 10.0767 6.63946 9.65345C7.06682 9.23041 7.28074 8.64377 7.28074 7.89329C7.28074 7.37857 7.11262 7.00565 6.77682 6.77433V6.77445ZM5.69726 8.37765C5.6535 8.68305 5.54022 8.88361 5.35702 8.97961C5.17378 9.07573 4.91206 9.12357 4.57186 9.12357L4.13998 9.13661L4.3625 7.73633C4.37986 7.64045 4.43654 7.59245 4.53258 7.59245H4.7813C5.1301 7.59245 5.38326 7.64273 5.5403 7.74289C5.69726 7.84329 5.74962 8.05493 5.69726 8.37765Z" fill="#003087"/>
<path d="M28.8733 6.42676H27.905C27.8088 6.42676 27.7521 6.47476 27.7349 6.5708L26.8842 12.0148L26.8711 12.041C26.8711 12.0848 26.8885 12.126 26.9235 12.1653C26.9582 12.2045 27.0021 12.2242 27.0543 12.2242H27.9182C28.0837 12.2242 28.1753 12.1414 28.193 11.9756L29.0436 6.62316V6.61016C29.0435 6.48796 28.9867 6.42692 28.8733 6.42692V6.42676Z" fill="#009CDE"/>
<path d="M17.1741 8.53476C17.1741 8.49124 17.1566 8.44972 17.1219 8.41056C17.0869 8.37132 17.0476 8.35156 17.0041 8.35156H15.9965C15.9003 8.35156 15.8218 8.3954 15.7608 8.4824L14.3737 10.524L13.7979 8.561C13.7541 8.42152 13.6582 8.35156 13.51 8.35156H12.5284C12.4847 8.35156 12.4454 8.37124 12.4108 8.41056C12.3758 8.44972 12.3584 8.49132 12.3584 8.53476C12.3584 8.55232 12.4435 8.8096 12.6136 9.30688C12.7836 9.80432 12.9668 10.3409 13.1632 10.9167C13.3595 11.4924 13.4619 11.798 13.4707 11.8326C12.7552 12.8098 12.3977 13.3333 12.3977 13.403C12.3977 13.5165 12.4543 13.5731 12.5678 13.5731H13.5754C13.6714 13.5731 13.7498 13.5296 13.811 13.4423L17.1481 8.62632C17.1654 8.60904 17.1741 8.57864 17.1741 8.53472V8.53476Z" fill="#003087"/>
<path d="M26.5572 8.35137H25.5626C25.4403 8.35137 25.3664 8.49537 25.3402 8.78333C25.1131 8.43445 24.699 8.25977 24.0969 8.25977C23.4688 8.25977 22.9343 8.49537 22.4939 8.96649C22.0532 9.43761 21.833 9.99177 21.833 10.6286C21.833 11.1434 21.9835 11.5534 22.2844 11.8586C22.5854 12.1642 22.9888 12.3167 23.495 12.3167C23.748 12.3167 24.0054 12.2642 24.2671 12.1596C24.5288 12.055 24.7336 11.9154 24.8822 11.7409C24.8822 11.7496 24.8733 11.7888 24.8561 11.8585C24.8384 11.9284 24.8298 11.981 24.8298 12.0156C24.8298 12.1553 24.8864 12.2249 25 12.2249H25.903C26.0686 12.2249 26.1647 12.1422 26.1908 11.9763L26.7274 8.56073C26.736 8.50833 26.723 8.46045 26.6881 8.41677C26.653 8.37325 26.6095 8.35137 26.5572 8.35137ZM24.8494 10.9295C24.627 11.1476 24.3586 11.2566 24.0446 11.2566C23.7915 11.2566 23.5866 11.187 23.4295 11.0473C23.2724 10.908 23.1939 10.716 23.1939 10.4715C23.1939 10.1489 23.303 9.87605 23.5212 9.65361C23.739 9.43113 24.0097 9.31993 24.3325 9.31993C24.5766 9.31993 24.7794 9.39189 24.941 9.53577C25.1022 9.67977 25.1832 9.87825 25.1832 10.1313C25.1831 10.4454 25.0719 10.7115 24.8494 10.9295Z" fill="#009CDE"/>
<path d="M11.6906 8.35137H10.696C10.5737 8.35137 10.4997 8.49537 10.4735 8.78333C10.2379 8.43445 9.82351 8.25977 9.23027 8.25977C8.60211 8.25977 8.06767 8.49537 7.62715 8.96649C7.18651 9.43761 6.96631 9.99177 6.96631 10.6286C6.96631 11.1434 7.11683 11.5534 7.41783 11.8586C7.71883 12.1642 8.12223 12.3167 8.62831 12.3167C8.87247 12.3167 9.12563 12.2642 9.38731 12.1596C9.64903 12.055 9.85843 11.9154 10.0155 11.7409C9.98047 11.8455 9.96311 11.9371 9.96311 12.0156C9.96311 12.1553 10.0198 12.2249 10.1332 12.2249H11.0362C11.2018 12.2249 11.2979 12.1422 11.3241 11.9763L11.8606 8.56073C11.8692 8.50833 11.8562 8.46045 11.8214 8.41677C11.7865 8.37325 11.7429 8.35137 11.6906 8.35137ZM9.98283 10.936C9.76031 11.15 9.48755 11.2566 9.16495 11.2566C8.91179 11.2566 8.70895 11.187 8.55639 11.0473C8.40363 10.908 8.32735 10.716 8.32735 10.4715C8.32735 10.1489 8.43635 9.87605 8.65455 9.65361C8.87251 9.43113 9.14299 9.31989 9.46591 9.31989C9.71007 9.31989 9.91291 9.39189 10.0745 9.53577C10.2357 9.67977 10.3165 9.87825 10.3165 10.1313C10.3165 10.4541 10.2053 10.7225 9.98283 10.936Z" fill="#003087"/>
<path d="M21.6431 6.77445C21.3072 6.54349 20.8689 6.42773 20.3279 6.42773H18.2471C18.0726 6.42773 17.9766 6.51065 17.9593 6.67633L17.1086 12.0155C17.0998 12.068 17.1129 12.1159 17.1479 12.1595C17.1825 12.2032 17.2263 12.2249 17.2787 12.2249H18.3517C18.4564 12.2249 18.5262 12.1683 18.5612 12.0549L18.7967 10.5369C18.8054 10.4671 18.8359 10.4104 18.8884 10.3667C18.9407 10.3231 19.0061 10.2946 19.0847 10.2816C19.1631 10.2686 19.2372 10.2621 19.3071 10.2621C19.3769 10.2621 19.4597 10.2665 19.5557 10.2752C19.6517 10.2839 19.7129 10.2881 19.7389 10.2881C20.4893 10.2881 21.0781 10.0767 21.5057 9.65345C21.9332 9.23041 22.1469 8.64377 22.1469 7.89329C22.1469 7.37857 21.9789 7.00561 21.6431 6.77433V6.77445ZM20.3018 8.92721C20.1098 9.05805 19.8219 9.12345 19.4381 9.12345L19.0193 9.13657L19.2417 7.73625C19.259 7.64041 19.3157 7.59233 19.4118 7.59233H19.6473C19.8393 7.59233 19.9919 7.60109 20.1055 7.61849C20.2187 7.63601 20.3279 7.69045 20.4326 7.78201C20.5374 7.87365 20.5897 8.00677 20.5897 8.18117C20.5897 8.54773 20.4936 8.79625 20.3018 8.92721Z" fill="#009CDE"/>
</svg>
